HIERARCHY
ROOT root
{
	OFFSET 0.000000 0.000000 0.000000
	CHANNELS 6 Xposition Yposition Zposition Zrotation Yrotation Xrotation
	JOINT lhip
	{
		OFFSET 0.058581 -0.082280 -0.017664
		CHANNELS 3 Zrotation Yrotation Xrotation
		JOINT lknee
		{
			OFFSET 0.043451 -0.386469 0.008037
			CHANNELS 3 Zrotation Yrotation Xrotation
			JOINT lankle
			{
				OFFSET -0.014790 -0.426874 -0.037428
				CHANNELS 3 Zrotation Yrotation Xrotation
				JOINT ltoe
				{
					OFFSET 0.041054 -0.060286 0.122042
					CHANNELS 3 Zrotation Yrotation Xrotation
					End Site
					{
						OFFSET 0.000000 0.000000 0.000000
					}
				}
			}
		}
	}
	JOINT rhip
	{
		OFFSET -0.060310 -0.090513 -0.013543
		CHANNELS 3 Zrotation Yrotation Xrotation
		JOINT rknee
		{
			OFFSET -0.043257 -0.383688 -0.004843
			CHANNELS 3 Zrotation Yrotation Xrotation
			JOINT rankle
			{
				OFFSET 0.019056 -0.420046 -0.034562
				CHANNELS 3 Zrotation Yrotation Xrotation
				JOINT rtoe
				{
					OFFSET -0.034840 -0.062106 0.130323
					CHANNELS 3 Zrotation Yrotation Xrotation
					End Site
					{
						OFFSET 0.000000 0.000000 0.000000
					}
				}
			}
		}
	}
	JOINT lowerback
	{
		OFFSET 0.004439 0.124404 -0.038385
		CHANNELS 3 Zrotation Yrotation Xrotation
		JOINT upperback
		{
			OFFSET 0.004488 0.137956 0.026820
			CHANNELS 3 Zrotation Yrotation Xrotation
			JOINT chest
			{
				OFFSET -0.002265 0.056032 0.002855
				CHANNELS 3 Zrotation Yrotation Xrotation
				JOINT lowerneck
				{
					OFFSET -0.013390 0.211636 -0.033468
					CHANNELS 3 Zrotation Yrotation Xrotation
					JOINT upperneck
					{
						OFFSET 0.010113 0.088937 0.050410
						CHANNELS 3 Zrotation Yrotation Xrotation
						End Site
						{
							OFFSET 0.000000 0.000000 0.000000
						}
					}
				}
				JOINT lclavicle
				{
					OFFSET 0.071702 0.114000 -0.018898
					CHANNELS 3 Zrotation Yrotation Xrotation
					JOINT lshoulder
					{
						OFFSET 0.122921 0.045205 -0.019046
						CHANNELS 3 Zrotation Yrotation Xrotation
						JOINT lelbow
						{
							OFFSET 0.255332 -0.015649 -0.022946
							CHANNELS 3 Zrotation Yrotation Xrotation
							JOINT lwrist
							{
								OFFSET 0.265709 0.012698 -0.007375
								CHANNELS 3 Zrotation Yrotation Xrotation
								End Site
								{
									OFFSET 0.000000 0.000000 0.000000
								}
							}
						}
					}
				}
				JOINT rclavicle
				{
					OFFSET -0.082954 0.112472 -0.023707
					CHANNELS 3 Zrotation Yrotation Xrotation
					JOINT rshoulder
					{
						OFFSET -0.113228 0.046853 -0.008472
						CHANNELS 3 Zrotation Yrotation Xrotation
						JOINT relbow
						{
							OFFSET -0.260127 -0.014369 -0.031269
							CHANNELS 3 Zrotation Yrotation Xrotation
							JOINT rwrist
							{
								OFFSET -0.269108 0.006794 -0.006027
								CHANNELS 3 Zrotation Yrotation Xrotation
								End Site
								{
									OFFSET 0.000000 0.000000 0.000000
								}
							}
						}
					}
				}
			}
		}
	}
}
MOTION
Frames: 11
Frame Time: 0.033333
-0.092259 0.561435 0.913162 0.277676 -1.752641 93.270009 10.128989 8.646614 -32.877426 -6.800589 2.316020 43.781577 0.036888 0.665752 -19.059774 0.000000 -0.000000 0.000000 -12.510773 -10.385724 -29.707436 -3.228767 -4.644835 51.402618 4.208631 -4.200595 -25.326210 0.000000 -0.000000 0.000000 1.508567 1.377319 39.602481 -2.051666 -0.498259 -5.695810 0.370810 -1.246315 -1.481669 -9.552897 8.615181 -15.876120 -2.293094 9.149638 7.806851 -30.422201 -11.509527 4.854889 -44.413034 -10.485237 6.008828 25.840800 -71.310429 -10.786093 15.192053 -16.693558 -20.243347 29.130913 16.879012 5.653149 46.074540 7.463773 6.264952 -44.902558 52.188637 -49.575616 -15.011912 20.318974 -28.187572 
-0.096886 0.562351 0.913090 0.648149 -2.031771 93.196860 10.206441 8.522419 -32.742724 -7.065673 2.176002 43.345941 -0.115718 0.583698 -18.715354 0.000000 -0.000000 0.000000 -12.560286 -10.269554 -29.775004 -3.243885 -4.801634 51.833884 4.093655 -4.546208 -25.578790 0.000000 -0.000000 0.000000 1.349890 1.307660 39.550558 -2.122119 -0.369196 -5.443069 0.304683 -1.221900 -1.508738 -9.574867 8.994615 -15.585604 -2.455506 9.497327 8.423554 -30.489720 -11.442607 4.831864 -44.270762 -10.429334 6.175262 27.073974 -71.520313 -12.216096 14.096178 -16.602082 -20.870272 29.143241 16.842995 5.684289 46.122957 7.666099 6.431242 -45.114912 52.003228 -49.859231 -14.482409 20.194921 -27.882562 
-0.101713 0.562006 0.913199 0.940637 -2.206662 92.952781 10.223485 8.835634 -32.435001 -7.131123 1.815052 43.047057 -0.272061 0.239750 -18.494340 0.000000 -0.000000 0.000000 -12.454237 -10.304332 -29.560908 -3.423603 -4.939518 52.204377 3.980627 -4.514083 -25.871136 0.000000 -0.000000 0.000000 1.455435 1.465278 39.793415 -2.244727 -0.324303 -5.488568 0.266460 -1.343719 -1.520276 -9.683807 9.314027 -15.259493 -2.498486 9.866525 8.677307 -30.594495 -11.422497 4.712943 -44.309407 -10.480615 5.952890 27.304643 -71.397308 -12.653069 14.935793 -16.603216 -20.771657 29.158372 16.814119 5.614644 46.202243 7.456295 6.365474 -45.105996 52.231035 -49.974440 -14.650873 20.103559 -27.831718 
-0.106313 0.562830 0.913605 1.553494 -2.410806 92.808087 10.162263 8.677289 -32.350933 -7.127002 1.473857 42.675797 -0.398284 0.056774 -18.014081 0.000000 -0.000000 0.000000 -12.415799 -10.519307 -29.420052 -3.392401 -5.074544 52.495978 3.909727 -4.821738 -26.123220 0.000000 -0.000000 0.000000 1.646084 1.443975 40.101010 -2.284154 -0.557201 -5.572347 0.189090 -1.427267 -1.624538 -9.735954 9.523518 -14.979143 -2.495212 10.467824 9.183952 -30.748519 -11.336499 4.679984 -44.252191 -10.474433 6.056462 28.093447 -71.404986 -13.498161 14.987978 -16.414643 -20.820671 29.216061 16.801891 5.695556 46.082012 7.517727 6.489401 -45.281738 52.312569 -50.400673 -14.925287 19.897116 -27.730000 
-0.111527 0.563950 0.913053 2.032115 -2.499762 93.052158 10.382813 8.540881 -32.689246 -7.214627 1.368698 42.327806 -0.499355 -0.086443 -17.437126 0.000000 -0.000000 0.000000 -12.188327 -10.501580 -29.862063 -3.473812 -5.428778 52.960029 3.692475 -5.151038 -26.428792 0.000000 -0.000000 0.000000 1.495995 1.253284 39.838041 -2.293770 -0.414684 -5.711768 0.200512 -1.313476 -1.471695 -9.796223 9.868860 -14.785210 -2.518931 10.933932 9.586121 -30.583135 -11.334164 4.690939 -44.633052 -10.577824 6.053477 28.883628 -71.399269 -14.187107 15.172120 -16.248774 -20.917274 29.063689 16.767982 5.799612 46.310986 7.668254 6.362484 -45.303513 52.287958 -50.246701 -14.506421 19.875148 -27.810504 
-0.116318 0.564160 0.913450 2.330273 -2.714193 92.915843 10.424611 8.639333 -32.382520 -7.337392 1.088665 41.787616 -0.759019 -0.304455 -17.143978 0.000000 -0.000000 0.000000 -12.151403 -10.608020 -29.762325 -3.601333 -5.712312 53.170867 3.538830 -5.179365 -26.563556 0.000000 -0.000000 0.000000 1.399059 1.276381 39.922959 -2.393947 -0.354518 -5.560345 0.212007 -1.288306 -1.581721 -9.935605 10.246292 -14.411226 -2.417364 11.207685 9.732559 -30.728127 -11.397949 4.621394 -44.667011 -10.534612 6.022342 29.385705 -71.400832 -14.569606 14.963128 -16.244391 -20.954740 29.231296 16.809742 5.792180 46.126163 7.630963 6.141720 -45.035240 52.321375 -50.008800 -13.953280 19.830690 -27.972772 
-0.120879 0.564547 0.914087 2.653853 -2.896572 92.702330 10.520840 8.474289 -31.988090 -7.217684 1.043895 41.266999 -0.973301 -0.613840 -16.951555 0.000000 -0.000000 0.000000 -12.119121 -10.755190 -29.517569 -3.611208 -5.892735 53.323107 3.401084 -5.205184 -26.734952 0.000000 -0.000000 0.000000 1.608042 1.344193 40.137308 -2.482846 -0.476429 -5.289857 0.110642 -1.423078 -1.864296 -10.045657 10.530168 -14.199012 -2.523640 11.829061 9.906586 -30.791436 -11.394883 4.701297 -44.822653 -10.492194 6.053108 30.260817 -71.407248 -15.524766 14.963224 -16.292157 -20.853882 29.202585 16.818142 5.785757 46.238153 7.646479 6.262037 -45.254857 52.343386 -50.421550 -13.902574 19.786465 -27.858082 
-0.125654 0.565205 0.914524 2.928769 -2.945218 92.602476 10.641152 8.598204 -31.789373 -7.167734 0.753480 40.824028 -1.151096 -0.837480 -16.544606 0.000000 -0.000000 0.000000 -11.907580 -10.812940 -29.470972 -3.655228 -6.107422 53.527041 3.254639 -5.220513 -26.895450 0.000000 -0.000000 0.000000 1.698653 1.341466 40.341207 -2.542577 -0.532731 -5.377452 0.089336 -1.391643 -1.797154 -10.057369 10.850006 -14.236056 -2.486932 12.242005 10.296114 -30.769932 -11.391207 4.603308 -45.111712 -10.428080 6.101363 30.744226 -71.474637 -15.735946 15.175532 -16.336584 -20.901835 29.033688 16.888156 5.661141 46.456807 7.711695 6.183177 -45.234592 52.273582 -50.457478 -13.454350 19.844638 -27.911067 
-0.130601 0.565609 0.914297 3.044684 -2.931861 92.843384 10.948289 8.806495 -31.949333 -7.239511 0.658687 40.466530 -1.274576 -1.013012 -16.084925 0.000000 -0.000000 0.000000 -11.592653 -10.788854 -29.846229 -3.776189 -6.452717 53.755570 2.913114 -5.242776 -27.032374 0.000000 -0.000000 0.000000 1.481249 1.214132 39.963899 -2.549488 -0.314058 -5.440468 0.143955 -1.300152 -1.567117 -10.121418 11.342738 -14.224902 -2.514340 12.583623 10.552562 -30.685349 -11.358593 4.406623 -45.490696 -10.312529 6.069901 30.972451 -71.480170 -15.607403 15.315201 -16.243512 -21.132012 29.074540 16.841116 5.737239 46.511389 7.937834 5.958345 -45.101388 52.381124 -49.939260 -13.182877 19.971864 -28.132843 
-0.135920 0.565364 0.915390 3.201177 -3.132648 92.652849 10.918094 8.963060 -31.316739 -7.161928 0.204076 39.525442 -1.498097 -1.181225 -15.784125 0.000000 -0.000000 0.000000 -11.590077 -10.991019 -29.500853 -3.651448 -6.672835 53.607092 2.883914 -5.064051 -26.991547 0.000000 -0.000000 0.000000 1.538280 1.230306 39.994377 -2.693393 -0.337936 -4.983139 0.121551 -1.382885 -1.885492 -10.196543 11.624829 -13.641885 -2.664835 13.145512 10.063248 -30.877150 -11.242734 4.518636 -45.765766 -10.547384 6.175099 31.448085 -71.445507 -16.086459 16.194105 -16.132289 -21.100235 28.973920 16.815553 5.843038 46.488698 8.106515 6.173856 -44.565751 52.559239 -49.278987 -14.433259 20.411185 -28.134171 
-0.139221 0.566018 0.915549 3.301077 -3.181135 92.816426 11.015537 8.951426 -31.373980 -6.938705 0.268130 39.142123 -1.631408 -1.453730 -15.538257 0.000000 -0.000000 0.000000 -11.523982 -10.917753 -29.707347 -3.669805 -7.033484 53.711277 2.835666 -5.008187 -27.069365 0.000000 -0.000000 0.000000 1.443858 1.153051 39.842266 -2.722559 -0.278846 -5.092590 0.113217 -1.322914 -1.868453 -10.040009 11.911846 -13.409208 -2.576794 13.246070 10.450104 -30.871025 -11.137594 4.489216 -46.086578 -10.601754 6.368484 31.754205 -71.400606 -16.429885 15.950746 -16.205191 -21.129172 28.965426 16.707127 5.949699 46.516265 8.274172 6.211959 -44.592066 52.630769 -49.445522 -14.921401 20.200443 -28.346976 
